HIERARCHY
ROOT Hips
{
	OFFSET -0.001795 -0.223333 0.028219
	CHANNELS 6 Xposition Yposition Zposition Zrotation Yrotation Xrotation 
	JOINT LeftUpLeg
	{
		OFFSET 0.069520 -0.091406 -0.006815
		CHANNELS 3 Zrotation Yrotation Xrotation
		JOINT LeftLeg
		{
			OFFSET 0.034277 -0.375199 -0.004496
			CHANNELS 3 Zrotation Yrotation Xrotation
			JOINT LeftFoot
			{
				OFFSET -0.013596 -0.397961 -0.043693
				CHANNELS 3 Zrotation Yrotation Xrotation
				JOINT LeftToe
				{
					OFFSET 0.026358 -0.055791 0.119288
					CHANNELS 3 Zrotation Yrotation Xrotation
					End Site
					{
						OFFSET 0.000000 0.000000 0.000000
					}
				}
			}
		}
	}
	JOINT RightUpLeg
	{
		OFFSET -0.067670 -0.090522 -0.004320
		CHANNELS 3 Zrotation Yrotation Xrotation
		JOINT RightLeg
		{
			OFFSET -0.038290 -0.382569 -0.008850
			CHANNELS 3 Zrotation Yrotation Xrotation
			JOINT RightFoot
			{
				OFFSET 0.015774 -0.398415 -0.042312
				CHANNELS 3 Zrotation Yrotation Xrotation
				JOINT RightToe
				{
					OFFSET -0.025372 -0.048144 0.123348
					CHANNELS 3 Zrotation Yrotation Xrotation
					End Site
					{
						OFFSET 0.000000 0.000000 0.000000
					}
				}
			}
		}
	}
	JOINT Spine
	{
		OFFSET -0.002533 0.108963 -0.026696
		CHANNELS 3 Zrotation Yrotation Xrotation
		JOINT Spine1
		{
			OFFSET 0.005487 0.135180 0.001092
			CHANNELS 3 Zrotation Yrotation Xrotation
			JOINT Spine2
			{
				OFFSET 0.001457 0.052922 0.025425
				CHANNELS 3 Zrotation Yrotation Xrotation
				JOINT Neck
				{
					OFFSET -0.002778 0.213870 -0.042857
					CHANNELS 3 Zrotation Yrotation Xrotation
					JOINT Head
					{
						OFFSET 0.005152 0.064970 0.051349
						CHANNELS 3 Zrotation Yrotation Xrotation
						End Site
						{
							OFFSET 0.000000 0.000000 0.000000
						}
					}
				}
				JOINT LeftShoulder
				{
					OFFSET 0.078845 0.121749 -0.034090
					CHANNELS 3 Zrotation Yrotation Xrotation
					JOINT LeftArm
					{
						OFFSET 0.090977 0.030469 -0.008868
						CHANNELS 3 Zrotation Yrotation Xrotation
						JOINT LeftForeArm
						{
							OFFSET 0.259612 -0.012772 -0.027456
							CHANNELS 3 Zrotation Yrotation Xrotation
							JOINT LeftHand
							{
								OFFSET 0.249234 0.008986 -0.001171
								CHANNELS 3 Zrotation Yrotation Xrotation
								End Site
								{
									OFFSET 0.000000 0.000000 0.000000
								}
							}
						}
					}
				}
				JOINT RightShoulder
				{
					OFFSET -0.081759 0.118833 -0.038615
					CHANNELS 3 Zrotation Yrotation Xrotation
					JOINT RightArm
					{
						OFFSET -0.096012 0.032551 -0.009143
						CHANNELS 3 Zrotation Yrotation Xrotation
						JOINT RightForeArm
						{
							OFFSET -0.253742 -0.013329 -0.021401
							CHANNELS 3 Zrotation Yrotation Xrotation
							JOINT RightHand
							{
								OFFSET -0.255298 0.007772 -0.005559
								CHANNELS 3 Zrotation Yrotation Xrotation
								End Site
								{
									OFFSET 0.000000 0.000000 0.000000
								}
							}
						}
					}
				}
			}
		}
	}
}
MOTION
Frames: 17
Frame Time: 0.050000
0.000000 0.927221 0.000000 -2.109654 -2.628537 -1.341132 3.737855 -0.368740 -6.145016 -7.750746 1.436109 13.399450 7.918046 16.354938 -0.753968 0.000000 0.000000 0.000000 -5.249051 0.381341 -4.579592 5.286777 -0.565981 10.314491 -6.066624 -15.118021 1.188658 0.000000 0.000000 0.000000 3.395118 -1.226453 17.944297 -6.257608 2.070795 -24.827588 -1.893815 7.298633 24.838870 10.772260 -2.706777 -31.679503 0.000000 0.000000 0.000000 -20.786771 -10.544988 2.955064 -43.296449 -11.440010 -2.679675 -7.219457 -26.363544 2.599741 0.000000 0.000000 0.000000 27.046504 -0.939736 -0.242092 51.130714 15.760492 -1.165716 8.687120 34.155342 4.717098 0.000000 0.000000 0.000000 
0.003600 0.927892 0.002509 -1.907040 -2.124353 -1.470970 3.605560 -0.330314 -5.312122 -8.243087 1.489882 12.547056 7.702354 15.892589 -0.749178 0.000000 0.000000 0.000000 -5.758384 0.317783 -3.619540 5.241546 -0.569990 9.501912 -6.146194 -15.498330 2.487921 0.000000 0.000000 0.000000 3.600173 -1.351802 19.142514 -7.030263 2.261591 -24.938522 -2.347272 6.954231 23.167215 10.415514 -2.342378 -32.442449 0.000000 0.000000 0.000000 -20.251717 -9.773085 2.485134 -43.808841 -11.149496 -2.675856 -6.729827 -24.552873 2.296555 0.000000 0.000000 0.000000 27.639756 -0.943169 -0.306974 52.379138 14.593974 -1.482171 7.147975 35.133194 4.426692 0.000000 0.000000 0.000000 
0.007567 0.927523 0.005263 -1.648600 -1.351431 -1.758986 3.415052 -0.340062 -5.290718 -8.533298 1.533447 12.808751 7.898200 16.259534 -0.508323 0.000000 0.000000 0.000000 -6.618530 0.320613 -4.208644 6.180655 -0.792582 11.725023 -6.637363 -16.620610 2.695347 0.000000 0.000000 0.000000 3.135832 -1.345130 19.927417 -6.761772 2.197914 -25.308664 -2.124616 6.397510 23.605731 9.608393 -2.144467 -31.410475 0.000000 0.000000 0.000000 -21.136871 -10.053755 2.650962 -42.710734 -11.077482 -2.680690 -5.869554 -23.066600 1.981705 0.000000 0.000000 0.000000 28.932425 -1.210199 -0.537204 50.684185 14.598260 -1.647865 7.173587 35.944252 4.540653 0.000000 0.000000 0.000000 
0.011582 0.927345 0.008702 -1.511520 -1.260773 -2.679126 2.666461 -0.297802 -4.284900 -8.155210 1.461527 13.233945 7.294598 14.970176 -1.085113 0.000000 0.000000 0.000000 -7.551440 0.306611 -4.760877 7.004679 -1.032475 15.119534 -6.830265 -17.043479 2.740158 0.000000 0.000000 0.000000 3.264860 -1.468977 21.545487 -7.459387 2.380478 -25.207895 -2.679448 5.891330 22.876435 10.768938 -2.790632 -31.516329 0.000000 0.000000 0.000000 -20.667126 -10.180349 2.821105 -41.911063 -10.805001 -2.704177 -6.001528 -23.235977 2.020541 0.000000 0.000000 0.000000 29.609610 -1.911659 -1.210685 50.902798 14.475496 -1.612658 7.587231 36.650210 4.766451 0.000000 0.000000 0.000000 
0.015286 0.926411 0.012507 -1.627045 -1.579352 -3.286444 2.351940 -0.245129 -3.449085 -7.704766 1.373874 13.312451 7.066683 14.464124 -1.519131 0.000000 0.000000 0.000000 -7.943656 0.345490 -6.436226 7.489477 -1.234751 19.847402 -6.981024 -17.422547 3.416781 0.000000 0.000000 0.000000 2.549467 -1.365312 22.386939 -6.857663 2.264596 -24.615523 -2.875242 5.862736 22.817096 10.928752 -2.987934 -31.115058 0.000000 0.000000 0.000000 -21.240792 -10.034193 2.777006 -40.779201 -11.174243 -2.539910 -5.014905 -23.378053 1.835028 0.000000 0.000000 0.000000 30.278635 -1.673049 -1.149541 50.550894 14.268938 -1.725385 6.784849 38.179312 4.732849 0.000000 0.000000 0.000000 
0.017886 0.926042 0.016490 -1.807279 -1.486507 -4.157701 2.377886 -0.161456 -2.343732 -8.057981 1.455164 13.384343 7.505358 15.355126 -1.523497 0.000000 0.000000 0.000000 -8.420520 0.357213 -8.242237 8.128123 -1.573054 25.464542 -6.584495 -16.585667 3.668510 0.000000 0.000000 0.000000 1.729794 -1.259231 23.372103 -6.658944 2.237372 -24.319526 -2.533901 5.254797 23.289715 10.653956 -2.819942 -31.932908 0.000000 0.000000 0.000000 -21.591149 -10.562569 3.240661 -39.494933 -11.752754 -2.374368 -4.816075 -22.836437 1.761475 0.000000 0.000000 0.000000 29.836915 -1.631464 -1.316721 50.334756 14.065584 -1.774155 7.730074 39.085537 5.137681 0.000000 0.000000 0.000000 
0.019007 0.927549 0.020837 -2.419612 -1.434575 -4.508184 2.853297 -0.061413 -1.026802 -8.071454 1.421094 12.603827 8.002238 16.379234 -1.389396 0.000000 0.000000 0.000000 -8.331532 0.449072 -11.439762 9.526459 -2.320291 31.966179 -6.671447 -16.802506 4.059176 0.000000 0.000000 0.000000 1.400106 -1.239280 24.075755 -5.909897 2.035927 -24.842989 -3.243822 4.323811 24.012789 12.490624 -3.845233 -32.557781 0.000000 0.000000 0.000000 -21.514551 -9.580097 2.990466 -38.552549 -11.704748 -2.499364 -5.350841 -23.320741 1.936503 0.000000 0.000000 0.000000 30.178213 -1.655139 -1.648382 49.981177 13.895284 -1.853900 9.742201 39.362578 5.820766 0.000000 0.000000 0.000000 
0.019080 0.928551 0.026258 -3.090518 -2.445376 -4.459637 3.584002 0.040554 0.407597 -7.992798 1.383582 11.188786 8.183308 16.819001 -1.564932 0.000000 0.000000 0.000000 -7.182676 0.714381 -14.761267 9.497476 -2.258573 34.180795 -6.850183 -17.114847 3.170031 0.000000 0.000000 0.000000 1.621347 -1.216652 23.594106 -4.923641 1.806839 -23.339361 -4.380334 4.812590 23.163527 12.106360 -4.021960 -30.142052 0.000000 0.000000 0.000000 -20.785741 -10.510696 3.463908 -37.971646 -10.630792 -2.682700 -5.682662 -24.433787 2.079919 0.000000 0.000000 0.000000 30.284077 -1.277250 -1.445826 49.760922 13.842660 -1.762969 10.148822 38.620925 5.767499 0.000000 0.000000 0.000000 
0.018237 0.929119 0.033060 -3.161735 -1.681340 -4.990093 3.818013 0.143551 2.209043 -7.518831 1.199569 9.785501 7.522714 15.533927 -0.274251 0.000000 0.000000 0.000000 -6.637853 0.825527 -16.471807 9.116942 -2.223818 34.256404 -6.732736 -16.714074 1.904644 0.000000 0.000000 0.000000 1.640382 -1.270100 23.816680 -6.073237 2.137119 -23.008574 -3.693140 2.551860 23.500871 11.441031 -3.757463 -31.555885 0.000000 0.000000 0.000000 -22.136343 -10.841426 4.224688 -36.388406 -11.221422 -2.619072 -5.053729 -25.323913 2.078439 0.000000 0.000000 0.000000 29.167158 -1.174662 -2.024133 51.147214 13.482630 -1.693109 10.205536 37.139377 5.355899 0.000000 0.000000 0.000000 
0.016920 0.929797 0.041663 -4.028616 -1.616139 -5.629720 4.788293 0.217804 3.911253 -7.508783 1.184030 9.559648 7.789332 15.948449 -1.440383 0.000000 0.000000 0.000000 -5.541995 1.036385 -17.818484 9.162217 -2.225394 32.936397 -7.212244 -17.918373 4.110287 0.000000 0.000000 0.000000 1.908907 -1.381044 24.596198 -5.156687 1.886066 -23.608685 -4.003038 3.368190 24.655055 12.624027 -4.336585 -31.295579 0.000000 0.000000 0.000000 -22.204386 -10.711941 3.909226 -35.622516 -12.314853 -2.287815 -6.578604 -26.403311 2.488661 0.000000 0.000000 0.000000 29.581981 -1.924420 -2.154731 50.738734 13.135800 -2.064866 10.144088 36.772956 5.390704 0.000000 0.000000 0.000000 
0.015137 0.929825 0.052736 -4.319322 -2.061476 -5.340453 5.357719 0.241361 4.703005 -7.985082 1.299974 9.701523 7.852004 16.105746 -1.592956 0.000000 0.000000 0.000000 -5.198963 1.177652 -18.990656 9.083774 -1.962487 27.890571 -7.466371 -18.567244 5.929527 0.000000 0.000000 0.000000 1.587422 -1.273886 24.188361 -4.126004 1.620784 -22.929317 -3.916811 3.690222 24.217394 12.124574 -3.737178 -32.819984 0.000000 0.000000 0.000000 -22.135659 -10.672363 3.845022 -36.086931 -12.003863 -2.344688 -7.235089 -28.342509 2.850531 0.000000 0.000000 0.000000 28.785035 -1.669374 -1.923823 50.725201 11.712172 -2.589547 11.044689 35.711001 5.458207 0.000000 0.000000 0.000000 
0.012692 0.929249 0.066585 -4.064611 -2.564024 -4.565346 5.144711 0.287905 5.504682 -8.094002 1.281839 8.301060 8.357676 17.159898 -2.539712 0.000000 0.000000 0.000000 -5.515748 1.213117 -19.870953 8.978059 -1.669709 21.672372 -6.403600 -16.430562 5.647694 0.000000 0.000000 0.000000 1.815184 -1.253353 23.382868 -4.253013 1.627629 -23.578151 -3.597310 4.065219 24.819820 12.512861 -3.899971 -33.048570 0.000000 0.000000 0.000000 -21.275741 -10.660108 3.876000 -37.380267 -11.838512 -2.524660 -8.531392 -29.871040 3.385656 0.000000 0.000000 0.000000 28.065338 -1.891278 -1.969435 51.962159 10.732808 -3.075132 10.442666 34.601568 5.123176 0.000000 0.000000 0.000000 
0.009308 0.927670 0.083260 -3.783393 -2.468635 -3.857429 4.479369 0.394337 7.080347 -7.005355 0.996811 6.015682 7.800200 15.961940 -3.063890 0.000000 0.000000 0.000000 -5.255806 1.233444 -19.474997 7.898233 -1.189439 14.540770 -5.601027 -14.888904 6.313502 0.000000 0.000000 0.000000 2.469847 -1.360341 22.873109 -4.215709 1.615826 -23.551484 -4.091519 4.502623 24.418202 12.897346 -4.152926 -32.187749 0.000000 0.000000 0.000000 -19.934526 -11.283114 4.054397 -39.295655 -11.655420 -2.592852 -9.935088 -32.049255 4.036279 0.000000 0.000000 0.000000 29.588853 -2.176612 -2.118265 50.821187 10.347939 -3.234442 8.845989 33.142752 4.402459 0.000000 0.000000 0.000000 
0.004469 0.924579 0.102250 -3.047441 -2.182697 -3.233830 3.673024 0.503342 8.194192 -6.254840 0.831555 4.723374 7.945810 16.235981 -3.513151 0.000000 0.000000 0.000000 -5.644114 1.162197 -19.337201 7.268483 -0.968348 10.226203 -4.237923 -12.363943 7.682835 0.000000 0.000000 0.000000 2.755426 -1.390763 22.287839 -4.721224 1.756631 -22.946669 -3.834302 4.135367 23.596098 12.922018 -4.267750 -31.636794 0.000000 0.000000 0.000000 -19.969056 -11.612459 4.277825 -39.798924 -11.584914 -2.597506 -10.811870 -32.637595 4.390215 0.000000 0.000000 0.000000 29.766328 -1.466934 -1.796510 50.969142 10.163950 -3.190565 5.888259 31.830901 3.330722 0.000000 0.000000 0.000000 
-0.002091 0.920487 0.123398 -2.468655 -1.161456 -3.141998 3.673859 0.583531 9.844177 -6.189710 0.786519 4.042056 7.677772 15.539124 -3.569150 0.000000 0.000000 0.000000 -5.740732 1.077111 -18.776859 6.728791 -0.865843 8.596888 -3.656633 -11.236648 8.267672 0.000000 0.000000 0.000000 3.302320 -1.563440 22.669140 -4.632408 1.755354 -22.962075 -4.476279 3.895513 22.839382 13.342403 -4.336695 -31.940058 0.000000 0.000000 0.000000 -19.712541 -11.703386 4.177958 -40.490511 -11.870614 -2.437190 -11.654616 -32.827370 4.636744 0.000000 0.000000 0.000000 30.953104 -1.644161 -1.891370 50.518560 10.144448 -3.164603 5.021319 31.163142 3.017389 0.000000 0.000000 0.000000 
-0.010264 0.915461 0.146599 -1.907058 -0.434647 -2.928417 3.503664 0.621541 10.497936 -6.113840 0.784047 5.117335 7.932327 15.862511 -4.912443 0.000000 0.000000 0.000000 -6.060140 1.029664 -19.293146 7.058824 -0.979299 10.172702 -3.900927 -11.812197 9.042117 0.000000 0.000000 0.000000 3.965968 -1.732961 22.761261 -4.501844 1.723820 -23.551538 -4.347429 3.628429 23.366030 13.179805 -4.186250 -32.352619 0.000000 0.000000 0.000000 -19.406281 -12.167348 4.418706 -41.338257 -11.528929 -2.625959 -12.918179 -34.152170 5.239215 0.000000 0.000000 0.000000 31.053969 -1.467340 -1.714847 49.781748 10.436956 -3.095691 4.599307 31.865135 2.990436 0.000000 0.000000 0.000000 
-0.019794 0.912060 0.171199 -1.615042 -0.117244 -2.923189 3.865433 0.602582 10.907860 -5.928209 0.783970 7.033335 8.344386 16.670196 -5.542803 0.000000 0.000000 0.000000 -6.111850 1.027444 -19.695289 7.574882 -1.177730 13.278031 -4.379872 -12.696955 8.901945 0.000000 0.000000 0.000000 4.932611 -1.911835 22.457229 -4.416881 1.719356 -22.984255 -4.112161 3.460726 23.252136 12.858851 -3.875776 -33.121734 0.000000 0.000000 0.000000 -19.619615 -12.440116 4.563394 -41.671634 -11.279034 -2.714284 -13.202007 -35.002070 5.478804 0.000000 0.000000 0.000000 30.809619 -0.944226 -1.339123 49.465417 11.366867 -2.709562 3.462340 31.214860 2.599860 0.000000 0.000000 0.000000 
